<svg width="1280" height="520" viewBox="0 0 1280 520" fill="none" xmlns="http://www.w3.org/2000/svg">
  <rect width="1280" height="520" rx="28" fill="#0F172A"/>
  <rect x="48" y="48" width="1184" height="424" rx="24" fill="#111827" stroke="#334155"/>
  <text x="84" y="118" fill="#BFDBFE" font-family="Segoe UI, Arial, sans-serif" font-size="24" font-weight="700">DEVATLAS</text>
  <text x="84" y="174" fill="white" font-family="Segoe UI, Arial, sans-serif" font-size="42" font-weight="800">Production-grade developer atlas monorepo</text>
  <text x="84" y="224" fill="#CBD5E1" font-family="Segoe UI, Arial, sans-serif" font-size="22">Next.js web, NestJS API, shared packages, search systems, and AI-assisted developer workflows.</text>
  <rect x="84" y="274" width="176" height="46" rx="12" fill="#1D4ED8"/>
  <text x="118" y="304" fill="white" font-family="Segoe UI, Arial, sans-serif" font-size="18" font-weight="700">Web</text>
  <rect x="276" y="274" width="176" height="46" rx="12" fill="#0F766E"/>
  <text x="310" y="304" fill="white" font-family="Segoe UI, Arial, sans-serif" font-size="18" font-weight="700">API</text>
  <rect x="468" y="274" width="210" height="46" rx="12" fill="#7C3AED"/>
  <text x="496" y="304" fill="white" font-family="Segoe UI, Arial, sans-serif" font-size="18" font-weight="700">Search</text>
  <rect x="874" y="116" width="284" height="228" rx="18" fill="#020617" stroke="#1E293B"/>
  <rect x="900" y="148" width="114" height="12" rx="6" fill="#22C55E"/>
  <rect x="900" y="182" width="214" height="10" rx="5" fill="#DBEAFE"/>
  <rect x="900" y="212" width="202" height="10" rx="5" fill="#94A3B8"/>
  <rect x="900" y="242" width="176" height="10" rx="5" fill="#475569"/>
  <rect x="900" y="282" width="158" height="18" rx="9" fill="#7C3AED"/>
  <text x="916" y="296" fill="white" font-family="Segoe UI, Arial, sans-serif" font-size="11" font-weight="800">MONOREPO SYSTEM</text>
  <text x="84" y="384" fill="#E2E8F0" font-family="Segoe UI, Arial, sans-serif" font-size="18">Architecture showcase for long-term engineering depth.</text>
</svg>
